<svg width="160" height="160" viewBox="0 0 160 160" fill="none" xmlns="http://www.w3.org/2000/svg">
<path d="M80 160C101.217 160 121.566 151.571 136.569 136.569C151.571 121.566 160 101.217 160 80C160 58.7827 151.571 38.4344 136.569 23.4315C121.566 8.42855 101.217 0 80 0C58.7827 0 38.4344 8.42855 23.4315 23.4315C8.42855 38.4344 0 58.7827 0 80C0 101.217 8.42855 121.566 23.4315 136.569C38.4344 151.571 58.7827 160 80 160ZM115.312 65.3125L75.3125 105.312C72.375 108.25 67.625 108.25 64.7188 105.312L44.7188 85.3125C41.7812 82.375 41.7812 77.625 44.7188 74.7188C47.6562 71.8125 52.4062 71.7812 55.3125 74.7188L70 89.4062L104.688 54.6875C107.625 51.75 112.375 51.75 115.281 54.6875C118.188 57.625 118.219 62.375 115.281 65.2812L115.312 65.3125Z" fill="#2A6D20"/>
</svg>
