<svg width="160" height="160" viewBox="0 0 160 160" fill="none" xmlns="http://www.w3.org/2000/svg">
<path d="M80 0C35.8885 0 0 35.8885 0 80C0 124.112 35.8885 160 80 160C124.112 160 160 124.112 160 80C160 35.8885 124.112 0 80 0ZM121.635 53.1885L69.9423 114.727C69.3753 115.402 68.6697 115.948 67.8734 116.327C67.0771 116.706 66.2087 116.909 65.3269 116.923H65.2231C64.3605 116.923 63.5077 116.741 62.7199 116.39C61.932 116.039 61.2268 115.526 60.65 114.885L38.4962 90.2692C37.9335 89.6725 37.4959 88.9693 37.2089 88.201C36.9219 87.4327 36.7914 86.6148 36.825 85.7953C36.8587 84.9758 37.0558 84.1714 37.4047 83.4292C37.7537 82.687 38.2476 82.022 38.8572 81.4734C39.4668 80.9247 40.18 80.5035 40.9548 80.2344C41.7295 79.9654 42.5502 79.8539 43.3687 79.9065C44.1872 79.9592 44.9869 80.1749 45.7208 80.541C46.4547 80.9071 47.108 81.4162 47.6423 82.0385L65.0615 101.392L112.212 45.2731C113.269 44.0503 114.765 43.2928 116.377 43.1644C117.989 43.036 119.586 43.5469 120.824 44.5868C122.062 45.6266 122.841 47.1119 122.993 48.7215C123.144 50.331 122.656 51.9357 121.635 53.1885V53.1885Z" fill="#133E87"/>
</svg>
