<svg width="160" height="160" viewBox="0 0 160 160" fill="none" xmlns="http://www.w3.org/2000/svg">
<g clip-path="url(#clip0_1731_1647)">
<path d="M157.373 39.4399C157.006 38.6849 156.464 38.0286 155.792 37.5257C155.12 37.0227 154.337 36.6877 153.51 36.5486C152.682 36.4095 151.833 36.4702 151.033 36.7258C150.234 36.9814 149.507 37.4245 148.913 38.018L132.929 54.0024C132.277 54.6455 131.398 55.0061 130.482 55.0061C129.566 55.0061 128.687 54.6455 128.035 54.0024L121.01 46.9774C120.368 46.3244 120.007 45.4451 120.007 44.5289C120.007 43.6128 120.368 42.7334 121.01 42.0805L136.91 26.1774C137.519 25.5691 137.969 24.8209 138.221 23.9984C138.473 23.176 138.52 22.3042 138.358 21.4593C138.195 20.6145 137.828 19.8223 137.289 19.1521C136.749 18.4819 136.054 17.9541 135.263 17.6149C122.854 12.3024 107.426 15.2867 97.7633 24.893C89.3852 33.2086 86.8789 46.143 90.8883 60.4243C91.0612 61.0372 91.0604 61.6861 90.886 62.2985C90.7117 62.911 90.3706 63.463 89.9008 63.893L35.8696 114.096C34.0796 115.707 32.6361 117.664 31.6273 119.851C30.6184 122.037 30.0652 124.406 30.0014 126.812C29.9375 129.219 30.3644 131.614 31.2559 133.851C32.1475 136.087 33.4851 138.119 35.1872 139.822C36.8893 141.525 38.9203 142.864 41.1565 143.756C43.3927 144.649 45.7872 145.077 48.1941 145.014C50.601 144.952 52.97 144.4 55.1567 143.392C57.3434 142.384 59.3021 140.942 60.9133 139.152L111.566 85.0274C111.991 84.5682 112.532 84.2333 113.132 84.0588C113.732 83.8842 114.369 83.8766 114.973 84.0368C129.035 87.7868 141.848 85.2868 150.107 77.1618C154.857 72.4743 158.173 65.8586 159.448 58.5024C160.645 51.5649 159.888 44.6149 157.373 39.4399Z" fill="#6C6B6C"/>
<path d="M136.675 118.257C132.318 114.634 123.011 106.255 113.525 97.5601L92.875 119.629C101.701 129.005 109.69 137.71 113.19 141.782L113.212 141.807C114.053 142.769 115.082 143.55 116.235 144.1C117.389 144.65 118.642 144.959 119.919 145.007H120.263C122.719 145 125.074 144.033 126.827 142.313L126.849 142.291L137.297 131.862C138.205 130.956 138.913 129.871 139.377 128.676C139.841 127.481 140.05 126.202 139.991 124.921C139.933 123.64 139.607 122.386 139.035 121.238C138.464 120.091 137.659 119.075 136.672 118.257H136.675Z" fill="#989898"/>
<path d="M37.0445 67.0508C37.0496 65.8647 36.725 64.7006 36.107 63.6883C36.0204 63.5514 35.9742 63.3929 35.9735 63.2309C35.9728 63.0689 36.0178 62.91 36.1032 62.7724C36.1887 62.6348 36.3111 62.524 36.4566 62.4528C36.602 62.3815 36.7646 62.3527 36.9257 62.3695H36.9445C37.207 62.3977 38.6101 62.6008 40.6007 63.8102C42.0789 64.707 46.2976 67.5852 53.6414 74.9164C53.5632 77.4134 54.3614 79.8589 55.8976 81.8289L76.5945 62.5945C74.7614 60.8588 72.3662 59.8386 69.8445 59.7195C69.8209 59.6939 69.799 59.6667 69.7788 59.6383L69.5757 59.4227L61.907 48.8477C61.0544 47.69 60.4953 46.3429 60.2776 44.9218C60.0599 43.5007 60.1901 42.048 60.657 40.6883C61.3604 38.6631 62.6398 36.8873 64.3382 35.5789C66.1164 34.2008 70.1289 32.5414 73.5382 32.2602C75.1264 32.1289 76.7252 32.2278 78.2851 32.5539C79.0324 32.7342 79.769 32.9565 80.4914 33.2195C80.7103 33.3013 80.9348 33.3671 81.1632 33.4164C82.1552 33.6362 83.1905 33.5485 84.1314 33.1651C85.0723 32.7817 85.8741 32.1208 86.4299 31.2704C86.9858 30.4199 87.2694 29.4203 87.243 28.4047C87.2165 27.389 86.8813 26.4055 86.282 25.5852C86.2007 25.4758 85.8695 25.0258 85.3788 24.4195C84.4634 23.265 83.4605 22.1826 82.3788 21.182C79.832 18.882 73.232 15.0039 64.5664 15.0039C59.6073 15.0003 54.6942 15.9553 50.0976 17.8164C38.107 22.6445 30.2632 29.2477 26.657 32.7508L26.6289 32.7789C24.2023 35.1749 21.9556 37.7465 19.907 40.4727C19.1325 41.5648 18.6291 42.8256 18.4382 44.1508C18.3491 44.7146 18.0526 45.2248 17.607 45.5815C17.1613 45.9381 16.5985 46.1155 16.0289 46.0789C15.9164 46.0789 15.8007 46.0789 15.6882 46.0789C13.9847 46.0676 12.3457 46.7303 11.1289 47.9227L1.92574 56.8945L1.82574 56.9945C0.668073 58.1973 0.0151543 59.7978 0.00120476 61.4671C-0.0127448 63.1364 0.613335 64.7476 1.75074 65.9695C1.81011 66.032 1.86636 66.0914 1.92886 66.1508L16.7726 80.6289C17.9956 81.8272 19.6385 82.5001 21.3507 82.5039C23.0543 82.5153 24.6933 81.8525 25.9101 80.6602L35.1164 71.6633C35.7304 71.0629 36.2175 70.3451 36.5487 69.5528C36.8799 68.7604 37.0485 67.9096 37.0445 67.0508V67.0508Z" fill="#989898"/>
</g>
<defs>
<clipPath id="clip0_1731_1647">
<rect width="160" height="160" fill="white"/>
</clipPath>
</defs>
</svg>
