<svg width="160" height="160" viewBox="0 0 160 160" fill="none" xmlns="http://www.w3.org/2000/svg">
<g clip-path="url(#clip0_1809_5804)">
<path d="M157.373 39.4401C157.006 38.6852 156.464 38.0289 155.792 37.5259C155.12 37.023 154.337 36.688 153.509 36.5488C152.682 36.4097 151.833 36.4705 151.033 36.7261C150.234 36.9817 149.507 37.4247 148.913 38.0183L132.929 54.0026C132.277 54.6458 131.398 55.0063 130.482 55.0063C129.566 55.0063 128.687 54.6458 128.035 54.0026L121.01 46.9776C120.367 46.3247 120.007 45.4453 120.007 44.5292C120.007 43.6131 120.367 42.7337 121.01 42.0808L136.91 26.1776C137.518 25.5693 137.969 24.8212 138.221 23.9987C138.473 23.1762 138.52 22.3044 138.358 21.4596C138.195 20.6147 137.828 19.8225 137.289 19.1524C136.749 18.4822 136.054 17.9544 135.263 17.6151C122.854 12.3026 107.426 15.287 97.7632 24.8932C89.3851 33.2089 86.8788 46.1433 90.8882 60.4245C91.0611 61.0374 91.0603 61.6863 90.8859 62.2988C90.7115 62.9113 90.3705 63.4633 89.9007 63.8933L35.8694 114.096C34.0794 115.707 32.636 117.665 31.6272 119.851C30.6183 122.037 30.0651 124.406 30.0012 126.813C29.9374 129.22 30.3642 131.614 31.2558 133.851C32.1474 136.088 33.4849 138.119 35.1871 139.822C36.8892 141.525 38.9202 142.864 41.1564 143.756C43.3925 144.649 45.787 145.077 48.194 145.015C50.6009 144.952 52.9699 144.4 55.1566 143.392C57.3433 142.384 59.302 140.942 60.9132 139.153L111.566 85.0276C111.99 84.5684 112.532 84.2336 113.132 84.059C113.732 83.8845 114.368 83.8769 114.973 84.037C129.035 87.787 141.848 85.287 150.107 77.162C154.857 72.4745 158.173 65.8589 159.448 58.5026C160.644 51.5651 159.888 44.6151 157.373 39.4401Z" fill="#133E87"/>
<path d="M136.675 118.257C132.318 114.634 123.011 106.255 113.525 97.5601L92.8753 119.629C101.702 129.005 109.69 137.71 113.191 141.782L113.213 141.807C114.053 142.769 115.082 143.55 116.236 144.1C117.389 144.65 118.643 144.959 119.92 145.007H120.264C122.719 145 125.075 144.033 126.827 142.313L126.849 142.291L137.297 131.862C138.205 130.956 138.913 129.871 139.377 128.676C139.841 127.481 140.051 126.202 139.992 124.921C139.933 123.64 139.607 122.386 139.036 121.238C138.464 120.091 137.659 119.075 136.672 118.257H136.675Z" fill="#C9C6C8"/>
<path d="M37.0446 67.051C37.0497 65.865 36.7252 64.7008 36.1071 63.6885C36.0206 63.5516 35.9743 63.3931 35.9736 63.2311C35.973 63.0692 36.0179 62.9103 36.1034 62.7727C36.1888 62.6351 36.3113 62.5243 36.4567 62.453C36.6022 62.3818 36.7648 62.3529 36.9259 62.3698H36.9446C37.2071 62.3979 38.6102 62.601 40.6009 63.8104C42.079 64.7073 46.2977 67.5854 53.6415 74.9167C53.5633 77.4136 54.3615 79.8592 55.8977 81.8292L76.5946 62.5948C74.7615 60.8591 72.3663 59.8389 69.8446 59.7198C69.821 59.6941 69.7991 59.667 69.779 59.6385L69.5759 59.4229L61.9071 48.8479C61.0546 47.6903 60.4955 46.3432 60.2778 44.9221C60.0601 43.501 60.1902 42.0483 60.6571 40.6885C61.3605 38.6633 62.64 36.8875 64.3384 35.5792C66.1165 34.201 70.129 32.5417 73.5384 32.2604C75.1265 32.1291 76.7254 32.228 78.2852 32.5542C79.0326 32.7345 79.7691 32.9567 80.4915 33.2198C80.7104 33.3016 80.9349 33.3674 81.1634 33.4167C82.1553 33.6364 83.1907 33.5488 84.1315 33.1654C85.0724 32.782 85.8742 32.1211 86.4301 31.2706C86.9859 30.4202 87.2695 29.4206 87.2431 28.4049C87.2167 27.3893 86.8815 26.4058 86.2821 25.5854C86.2009 25.476 85.8696 25.026 85.379 24.4198C84.4636 23.2652 83.4606 22.1829 82.379 21.1823C79.8321 18.8823 73.2321 15.0042 64.5665 15.0042C59.6074 15.0005 54.6944 15.9555 50.0977 17.8167C38.1071 22.6448 30.2634 29.2479 26.6571 32.751L26.629 32.7792C24.2024 35.1752 21.9557 37.7467 19.9071 40.4729C19.1326 41.5651 18.6292 42.8258 18.4384 44.151C18.3492 44.7148 18.0528 45.225 17.6071 45.5817C17.1614 45.9384 16.5986 46.1158 16.029 46.0792C15.9165 46.0792 15.8009 46.0792 15.6884 46.0792C13.9848 46.0678 12.3458 46.7306 11.129 47.9229L1.92587 56.8948L1.82587 56.9948C0.668208 58.1975 0.0152888 59.7981 0.00133922 61.4674C-0.0126104 63.1367 0.613469 64.7479 1.75087 65.9698C1.81025 66.0323 1.8665 66.0917 1.929 66.151L16.7727 80.6292C17.9957 81.8275 19.6387 82.5003 21.3509 82.5042C23.0545 82.5155 24.6934 81.8527 25.9102 80.6604L35.1165 71.6635C35.7305 71.0631 36.2176 70.3454 36.5488 69.553C36.88 68.7607 37.0486 67.9098 37.0446 67.051V67.051Z" fill="#C9C6C8"/>
</g>
<defs>
<clipPath id="clip0_1809_5804">
<rect width="160" height="160" fill="white"/>
</clipPath>
</defs>
</svg>
