<svg width="160" height="160" viewBox="0 0 160 160" fill="none" xmlns="http://www.w3.org/2000/svg">
<path d="M149.892 83.9746L139.892 36.534C137.961 26.184 130.523 20.0059 119.998 20.0059H39.9981C34.7481 20.0059 30.3106 21.4715 26.8418 24.3621C23.3731 27.2527 21.1012 31.334 20.0981 36.5152L10.0981 83.9746C10.0305 84.3142 9.99701 84.6596 9.99807 85.0059V120.006C9.99807 125.31 12.1052 130.397 15.8559 134.148C19.6067 137.899 24.6937 140.006 29.9981 140.006H129.998C135.302 140.006 140.389 137.899 144.14 134.148C147.891 130.397 149.998 125.31 149.998 120.006V85.0059C149.997 84.6594 149.961 84.314 149.892 83.9746ZM29.8918 38.5371C29.8918 38.5059 29.8918 38.4777 29.8918 38.4496C31.0012 32.6902 34.2074 30.0121 39.9824 30.0121H119.998C125.814 30.0121 129.02 32.684 130.082 38.4215C130.082 38.4621 130.098 38.5027 130.104 38.5434L138.52 78.5059C138.558 78.6879 138.555 78.8762 138.511 79.057C138.467 79.2378 138.384 79.4065 138.266 79.5508C138.149 79.6951 138.001 79.8114 137.833 79.8912C137.665 79.9711 137.481 80.0123 137.295 80.0121H99.9981C98.6797 80.0055 97.4126 80.5224 96.4751 81.4494C95.5376 82.3763 95.0063 83.6375 94.9981 84.9559C94.9981 88.9341 93.4177 92.7494 90.6047 95.5625C87.7916 98.3755 83.9763 99.9559 79.9981 99.9559C76.0198 99.9559 72.2045 98.3755 69.3915 95.5625C66.5784 92.7494 64.9981 88.9341 64.9981 84.9559C64.9948 84.3025 64.8629 83.6562 64.6098 83.0539C64.3568 82.4516 63.9876 81.905 63.5233 81.4453C63.059 80.9857 62.5087 80.622 61.9038 80.375C61.299 80.128 60.6514 80.0026 59.9981 80.0059H22.7012C22.5152 80.0061 22.3314 79.9648 22.1634 79.885C21.9954 79.8052 21.8472 79.6889 21.7299 79.5446C21.6125 79.4002 21.5288 79.2315 21.4849 79.0508C21.441 78.87 21.4381 78.6817 21.4762 78.4996L29.8918 38.5371Z" fill="#6C6B6C"/>
<path d="M115.007 50.0068H45.0068C43.6808 50.0068 42.409 49.4801 41.4713 48.5424C40.5336 47.6047 40.0068 46.3329 40.0068 45.0068C40.0068 43.6808 40.5336 42.409 41.4713 41.4713C42.409 40.5336 43.6808 40.0068 45.0068 40.0068H115.007C116.333 40.0068 117.605 40.5336 118.542 41.4713C119.48 42.409 120.007 43.6808 120.007 45.0068C120.007 46.3329 119.48 47.6047 118.542 48.5424C117.605 49.4801 116.333 50.0068 115.007 50.0068Z" fill="#989898"/>
<path d="M120.01 70.0078H40.0098C38.6837 70.0078 37.4119 69.481 36.4742 68.5433C35.5366 67.6057 35.0098 66.3339 35.0098 65.0078C35.0098 63.6817 35.5366 62.41 36.4742 61.4723C37.4119 60.5346 38.6837 60.0078 40.0098 60.0078H120.01C121.336 60.0078 122.608 60.5346 123.545 61.4723C124.483 62.41 125.01 63.6817 125.01 65.0078C125.01 66.3339 124.483 67.6057 123.545 68.5433C122.608 69.481 121.336 70.0078 120.01 70.0078Z" fill="#989898"/>
</svg>
