<svg width="150" height="120" viewBox="0 0 150 120" fill="none" xmlns="http://www.w3.org/2000/svg">
<path d="M150 27.5C150 22.8587 148.156 18.4076 144.874 15.1257C141.592 11.8438 137.141 10 132.5 10H63.7844C62.3047 10.0048 60.8569 9.56969 59.625 8.75003L50.9375 2.94066C48.0607 1.01695 44.6763 -0.00673924 41.2156 3.3389e-05H17.5C12.8587 3.3389e-05 8.40752 1.84378 5.12563 5.12567C1.84374 8.40755 0 12.8587 0 17.5V32.5C0 33.1631 0.263392 33.799 0.732233 34.2678C1.20107 34.7366 1.83696 35 2.5 35H147.5C148.163 35 148.799 34.7366 149.268 34.2678C149.737 33.799 150 33.1631 150 32.5V27.5Z" fill="#989898"/>
<path d="M0 102.497C0 107.138 1.84374 111.59 5.12563 114.871C8.40752 118.153 12.8587 119.997 17.5 119.997H132.5C137.141 119.997 141.592 118.153 144.874 114.871C148.156 111.59 150 107.138 150 102.497V47.4971C150 46.834 149.737 46.1981 149.268 45.7293C148.799 45.2605 148.163 44.9971 147.5 44.9971H2.5C1.83696 44.9971 1.20107 45.2605 0.732233 45.7293C0.263392 46.1981 0 46.834 0 47.4971V102.497Z" fill="#133E87"/>
</svg>
