<svg width="160" height="160" viewBox="0 0 160 160" fill="none" xmlns="http://www.w3.org/2000/svg">
<path d="M63.7584 75.0112H21.2523C18.2682 75.0112 15.4063 73.8258 13.2962 71.7157C11.1861 69.6056 10.0007 66.7437 10.0007 63.7596V21.2536C10.0007 18.2694 11.1861 15.4076 13.2962 13.2975C15.4063 11.1874 18.2682 10.002 21.2523 10.002H63.7584C66.7425 10.002 69.6044 11.1874 71.7145 13.2975C73.8246 15.4076 75.01 18.2694 75.01 21.2536V63.7596C75.01 66.7437 73.8246 69.6056 71.7145 71.7157C69.6044 73.8258 66.7425 75.0112 63.7584 75.0112V75.0112Z" fill="#C9C6C8"/>
<path d="M138.755 75.0095H96.2492C93.2651 75.0095 90.4032 73.8241 88.2931 71.714C86.183 69.6039 84.9976 66.742 84.9976 63.7579V21.2519C84.9976 18.2677 86.183 15.4058 88.2931 13.2958C90.4032 11.1857 93.2651 10.0002 96.2492 10.0002H138.755C141.739 10.0002 144.601 11.1857 146.711 13.2958C148.821 15.4058 150.007 18.2677 150.007 21.2519V63.7579C150.007 66.742 148.821 69.6039 146.711 71.714C144.601 73.8241 141.739 75.0095 138.755 75.0095V75.0095Z" fill="#133E87"/>
<path d="M63.7559 150.013H21.2499C18.2658 150.013 15.4039 148.828 13.2938 146.718C11.1837 144.608 9.99826 141.746 9.99826 138.762V96.2558C9.99826 93.2716 11.1837 90.4098 13.2938 88.2997C15.4039 86.1896 18.2658 85.0042 21.2499 85.0042H63.7559C66.74 85.0042 69.6019 86.1896 71.712 88.2997C73.8221 90.4098 75.0075 93.2716 75.0075 96.2558V138.762C75.0075 141.746 73.8221 144.608 71.712 146.718C69.6019 148.828 66.74 150.013 63.7559 150.013V150.013Z" fill="#133E87"/>
<path d="M138.755 150.013H96.2492C93.2651 150.013 90.4032 148.828 88.2931 146.718C86.183 144.608 84.9976 141.746 84.9976 138.762V96.2558C84.9976 93.2716 86.183 90.4098 88.2931 88.2997C90.4032 86.1896 93.2651 85.0042 96.2492 85.0042H138.755C141.739 85.0042 144.601 86.1896 146.711 88.2997C148.821 90.4098 150.007 93.2716 150.007 96.2558V138.762C150.007 141.746 148.821 144.608 146.711 146.718C144.601 148.828 141.739 150.013 138.755 150.013V150.013Z" fill="#C9C6C8"/>
</svg>
