<svg width="160" height="160" viewBox="0 0 160 160" fill="none" xmlns="http://www.w3.org/2000/svg">
<path d="M63.7587 75.0112H21.2526C18.2685 75.0112 15.4066 73.8258 13.2965 71.7157C11.1864 69.6056 10.001 66.7437 10.001 63.7596V21.2536C10.001 18.2694 11.1864 15.4076 13.2965 13.2975C15.4066 11.1874 18.2685 10.002 21.2526 10.002H63.7587C66.7428 10.002 69.6047 11.1874 71.7147 13.2975C73.8248 15.4076 75.0103 18.2694 75.0103 21.2536V63.7596C75.0103 66.7437 73.8248 69.6056 71.7147 71.7157C69.6047 73.8258 66.7428 75.0112 63.7587 75.0112V75.0112Z" fill="#989898"/>
<path d="M138.756 75.0093H96.2497C93.2655 75.0093 90.4037 73.8239 88.2936 71.7138C86.1835 69.6037 84.998 66.7418 84.998 63.7577V21.2516C84.998 18.2675 86.1835 15.4056 88.2936 13.2955C90.4037 11.1854 93.2655 10 96.2497 10H138.756C141.74 10 144.602 11.1854 146.712 13.2955C148.822 15.4056 150.007 18.2675 150.007 21.2516V63.7577C150.007 66.7418 148.822 69.6037 146.712 71.7138C144.602 73.8239 141.74 75.0093 138.756 75.0093V75.0093Z" fill="#6C6B6C"/>
<path d="M63.7557 150.013H21.2497C18.2655 150.013 15.4037 148.828 13.2936 146.718C11.1835 144.608 9.99805 141.746 9.99805 138.762V96.2555C9.99805 93.2714 11.1835 90.4095 13.2936 88.2994C15.4037 86.1893 18.2655 85.0039 21.2497 85.0039H63.7557C66.7398 85.0039 69.6017 86.1893 71.7118 88.2994C73.8219 90.4095 75.0073 93.2714 75.0073 96.2555V138.762C75.0073 141.746 73.8219 144.608 71.7118 146.718C69.6017 148.828 66.7398 150.013 63.7557 150.013V150.013Z" fill="#6C6B6C"/>
<path d="M138.756 150.013H96.2497C93.2655 150.013 90.4037 148.828 88.2936 146.718C86.1835 144.608 84.998 141.746 84.998 138.762V96.2555C84.998 93.2714 86.1835 90.4095 88.2936 88.2994C90.4037 86.1893 93.2655 85.0039 96.2497 85.0039H138.756C141.74 85.0039 144.602 86.1893 146.712 88.2994C148.822 90.4095 150.007 93.2714 150.007 96.2555V138.762C150.007 141.746 148.822 144.608 146.712 146.718C144.602 148.828 141.74 150.013 138.756 150.013V150.013Z" fill="#989898"/>
</svg>
