<svg width="160" height="160" viewBox="0 0 160 160" fill="none" xmlns="http://www.w3.org/2000/svg">
<path d="M80.0059 19.9976C46.8809 19.9976 20.0059 46.8726 20.0059 79.9976C20.0059 113.123 46.8809 139.998 80.0059 139.998C113.131 139.998 140.006 113.123 140.006 79.9976C140.006 46.8726 113.131 19.9976 80.0059 19.9976ZM78.1309 114.998C76.8947 114.998 75.6864 114.631 74.6586 113.944C73.6307 113.257 72.8297 112.281 72.3566 111.139C71.8836 109.997 71.7598 108.741 72.001 107.528C72.2421 106.316 72.8374 105.202 73.7114 104.328C74.5855 103.454 75.6992 102.859 76.9115 102.618C78.1239 102.377 79.3806 102.5 80.5226 102.973C81.6647 103.446 82.6408 104.247 83.3276 105.275C84.0143 106.303 84.3809 107.511 84.3809 108.748C84.3809 110.405 83.7224 111.995 82.5503 113.167C81.3782 114.339 79.7885 114.998 78.1309 114.998V114.998ZM88.5809 83.1226C83.5152 86.5226 82.8184 89.6382 82.8184 92.4976C82.8184 93.6579 82.3574 94.7707 81.537 95.5912C80.7165 96.4116 79.6037 96.8726 78.4434 96.8726C77.283 96.8726 76.1702 96.4116 75.3498 95.5912C74.5293 94.7707 74.0684 93.6579 74.0684 92.4976C74.0684 85.6507 77.2184 80.2069 83.6996 75.8538C89.7246 71.8101 93.1309 69.2476 93.1309 63.6132C93.1309 59.7819 90.9434 56.8726 86.4152 54.7194C85.3496 54.2132 82.9777 53.7194 80.059 53.7538C76.3965 53.8007 73.5527 54.6757 71.3621 56.4382C67.2309 59.7632 66.8809 63.3819 66.8809 63.4351C66.8532 64.0096 66.7126 64.573 66.4671 65.0932C66.2217 65.6134 65.8761 66.0802 65.4503 66.4669C65.0245 66.8535 64.5266 67.1525 63.9852 67.3468C63.4438 67.5411 62.8695 67.6268 62.2949 67.5991C61.7204 67.5714 61.1569 67.4308 60.6367 67.1854C60.1165 66.9399 59.6498 66.5944 59.2631 66.1686C58.8764 65.7427 58.5774 65.2449 58.3832 64.7035C58.1889 64.1621 58.1032 63.5877 58.1309 63.0132C58.1652 62.2538 58.6934 55.4132 65.8715 49.6382C69.5934 46.6444 74.3277 45.0882 79.934 45.0194C83.9027 44.9726 87.6309 45.6444 90.159 46.8382C97.7246 50.4163 101.881 56.3819 101.881 63.6132C101.881 74.1851 94.8152 78.9319 88.5809 83.1226Z" fill="#133E87"/>
</svg>
