<svg width="160" height="160" viewBox="0 0 160 160" fill="none" xmlns="http://www.w3.org/2000/svg">
<path d="M80 0C35.8333 0 0 35.8333 0 80C0 124.167 35.8333 160 80 160C124.167 160 160 124.167 160 80C160 35.8333 124.167 0 80 0ZM77.5 126.667C75.8518 126.667 74.2407 126.178 72.8702 125.262C71.4998 124.347 70.4317 123.045 69.801 121.522C69.1703 120 69.0052 118.324 69.3268 116.708C69.6483 115.091 70.442 113.606 71.6074 112.441C72.7729 111.275 74.2577 110.482 75.8742 110.16C77.4908 109.839 79.1663 110.004 80.689 110.634C82.2117 111.265 83.5132 112.333 84.4289 113.704C85.3446 115.074 85.8333 116.685 85.8333 118.333C85.8333 120.543 84.9554 122.663 83.3926 124.226C81.8298 125.789 79.7101 126.667 77.5 126.667V126.667ZM91.4333 84.1667C84.6792 88.7 83.75 92.8542 83.75 96.6667C83.75 98.2138 83.1354 99.6975 82.0415 100.791C80.9475 101.885 79.4638 102.5 77.9167 102.5C76.3696 102.5 74.8858 101.885 73.7919 100.791C72.6979 99.6975 72.0833 98.2138 72.0833 96.6667C72.0833 87.5375 76.2833 80.2792 84.925 74.475C92.9583 69.0833 97.5 65.6667 97.5 58.1542C97.5 53.0458 94.5833 49.1667 88.5458 46.2958C87.125 45.6208 83.9625 44.9625 80.0708 45.0083C75.1875 45.0708 71.3958 46.2375 68.475 48.5875C62.9667 53.0208 62.5 57.8458 62.5 57.9167C62.4631 58.6827 62.2756 59.434 61.9483 60.1276C61.6211 60.8212 61.1604 61.4435 60.5926 61.9591C60.0248 62.4746 59.361 62.8733 58.6391 63.1323C57.9173 63.3914 57.1515 63.5057 56.3854 63.4687C55.6194 63.4318 54.8681 63.2444 54.1745 62.9171C53.4809 62.5898 52.8586 62.1291 52.343 61.5613C51.8274 60.9935 51.4288 60.3298 51.1697 59.6079C50.9107 58.886 50.7964 58.1202 50.8333 57.3542C50.8792 56.3417 51.5833 47.2208 61.1542 39.5208C66.1167 35.5292 72.4292 33.4542 79.9042 33.3625C85.1958 33.3 90.1667 34.1958 93.5375 35.7875C103.625 40.5583 109.167 48.5125 109.167 58.1542C109.167 72.25 99.7458 78.5792 91.4333 84.1667Z" fill="#133E87"/>
</svg>
