<svg width="160" height="236" viewBox="0 0 160 236" fill="none" xmlns="http://www.w3.org/2000/svg">
<path d="M127.512 34.998H57.5116C51.5442 34.998 45.8213 37.3686 41.6017 41.5881C37.3821 45.8077 35.0116 51.5307 35.0116 57.498V127.498C35.0116 133.465 37.3821 139.188 41.6017 143.408C45.8213 147.628 51.5442 149.998 57.5116 149.998H127.512C133.479 149.998 139.202 147.628 143.422 143.408C147.641 139.188 150.012 133.465 150.012 127.498V57.498C150.012 51.5307 147.641 45.8077 143.422 41.5881C139.202 37.3686 133.479 34.998 127.512 34.998ZM117.371 97.4981H97.5116V117.357C97.5116 120.048 95.4428 122.357 92.7522 122.492C92.0762 122.524 91.4006 122.419 90.7663 122.183C90.132 121.947 89.5523 121.584 89.0624 121.117C88.5724 120.65 88.1823 120.089 87.9157 119.467C87.6491 118.845 87.5117 118.175 87.5116 117.498V97.4981H67.6522C64.9616 97.4981 62.6522 95.4293 62.5179 92.7387C62.4853 92.0626 62.5903 91.387 62.8266 90.7528C63.0628 90.1185 63.4254 89.5388 63.8923 89.0488C64.3592 88.5588 64.9207 88.1687 65.5429 87.9022C66.165 87.6356 66.8348 87.4981 67.5116 87.4981H87.5116V67.6387C87.5116 64.948 89.5804 62.6387 92.271 62.5043C92.947 62.4717 93.6226 62.5767 94.2569 62.813C94.8912 63.0493 95.4709 63.4118 95.9609 63.8787C96.4508 64.3457 96.8409 64.9072 97.1075 65.5293C97.3741 66.1514 97.5115 66.8212 97.5116 67.4981V87.4981H117.512C118.189 87.4973 118.859 87.6341 119.482 87.9003C120.105 88.1665 120.667 88.5565 121.135 89.0465C121.603 89.5366 121.966 90.1166 122.202 90.7513C122.439 91.386 122.544 92.0621 122.512 92.7387C122.38 95.4293 120.062 97.4981 117.371 97.4981Z" fill="#133E87"/>
<path d="M123.725 25.0024C122.169 20.6188 119.296 16.8239 115.498 14.1383C111.7 11.4528 107.164 10.0081 102.513 10.0024H32.5126C26.5453 10.0024 20.8223 12.373 16.6027 16.5925C12.3832 20.8121 10.0126 26.5351 10.0126 32.5024V102.502C10.0182 107.154 11.4629 111.69 14.1485 115.488C16.8341 119.285 20.629 122.159 25.0126 123.715V50.0024C25.0126 43.372 27.6466 37.0132 32.335 32.3248C37.0234 27.6364 43.3822 25.0024 50.0126 25.0024H123.725Z" fill="#133E87"/>
<path d="M15.7436 218.768V230H13.0076V218.768H15.7436ZM23.1664 220.976C24.2117 220.976 25.0437 221.317 25.6624 222C26.2917 222.672 26.6064 223.6 26.6064 224.784V230H23.8864V225.152C23.8864 224.555 23.7317 224.091 23.4224 223.76C23.113 223.429 22.697 223.264 22.1744 223.264C21.6517 223.264 21.2357 223.429 20.9264 223.76C20.617 224.091 20.4624 224.555 20.4624 225.152V230H17.7264V221.072H20.4624V222.256C20.7397 221.861 21.113 221.552 21.5824 221.328C22.0517 221.093 22.5797 220.976 23.1664 220.976ZM31.2436 222.336C31.5103 221.92 31.8783 221.584 32.3476 221.328C32.817 221.072 33.3663 220.944 33.9956 220.944C34.7316 220.944 35.3983 221.131 35.9956 221.504C36.593 221.877 37.0623 222.411 37.4036 223.104C37.7556 223.797 37.9316 224.603 37.9316 225.52C37.9316 226.437 37.7556 227.248 37.4036 227.952C37.0623 228.645 36.593 229.184 35.9956 229.568C35.3983 229.941 34.7316 230.128 33.9956 230.128C33.377 230.128 32.8276 230 32.3476 229.744C31.8783 229.488 31.5103 229.157 31.2436 228.752V234.256H28.5076V221.072H31.2436V222.336ZM35.1476 225.52C35.1476 224.837 34.9556 224.304 34.5716 223.92C34.1983 223.525 33.7343 223.328 33.1796 223.328C32.6356 223.328 32.1716 223.525 31.7876 223.92C31.4143 224.315 31.2276 224.853 31.2276 225.536C31.2276 226.219 31.4143 226.757 31.7876 227.152C32.1716 227.547 32.6356 227.744 33.1796 227.744C33.7236 227.744 34.1876 227.547 34.5716 227.152C34.9556 226.747 35.1476 226.203 35.1476 225.52ZM48.183 221.072V230H45.447V228.784C45.1697 229.179 44.791 229.499 44.311 229.744C43.8417 229.979 43.319 230.096 42.743 230.096C42.0603 230.096 41.4577 229.947 40.935 229.648C40.4123 229.339 40.007 228.896 39.719 228.32C39.431 227.744 39.287 227.067 39.287 226.288V221.072H42.007V225.92C42.007 226.517 42.1617 226.981 42.471 227.312C42.7803 227.643 43.1963 227.808 43.719 227.808C44.2523 227.808 44.6737 227.643 44.983 227.312C45.2923 226.981 45.447 226.517 45.447 225.92V221.072H48.183ZM55.1243 227.68V230H53.7323C52.7403 230 51.9669 229.76 51.4123 229.28C50.8576 228.789 50.5803 227.995 50.5803 226.896V223.344H49.4923V221.072H50.5803V218.896H53.3163V221.072H55.1083V223.344H53.3163V226.928C53.3163 227.195 53.3803 227.387 53.5083 227.504C53.6363 227.621 53.8496 227.68 54.1483 227.68H55.1243ZM62.7749 222.336C63.0309 221.92 63.3989 221.584 63.8789 221.328C64.3589 221.072 64.9082 220.944 65.5269 220.944C66.2629 220.944 66.9295 221.131 67.5269 221.504C68.1242 221.877 68.5935 222.411 68.9349 223.104C69.2869 223.797 69.4629 224.603 69.4629 225.52C69.4629 226.437 69.2869 227.248 68.9349 227.952C68.5935 228.645 68.1242 229.184 67.5269 229.568C66.9295 229.941 66.2629 230.128 65.5269 230.128C64.8975 230.128 64.3482 230.005 63.8789 229.76C63.4095 229.504 63.0415 229.168 62.7749 228.752V230H60.0389V218.16H62.7749V222.336ZM66.6789 225.52C66.6789 224.837 66.4869 224.304 66.1029 223.92C65.7295 223.525 65.2655 223.328 64.7109 223.328C64.1669 223.328 63.7029 223.525 63.3189 223.92C62.9455 224.315 62.7589 224.853 62.7589 225.536C62.7589 226.219 62.9455 226.757 63.3189 227.152C63.7029 227.547 64.1669 227.744 64.7109 227.744C65.2549 227.744 65.7189 227.547 66.1029 227.152C66.4869 226.747 66.6789 226.203 66.6789 225.52ZM80.0183 221.072L74.4183 234.24H71.4743L73.5223 229.696L69.8902 221.072H72.9463L75.0103 226.656L77.0583 221.072H80.0183ZM97.2143 221.072L94.7983 230H91.7743L90.3663 224.208L88.9103 230H85.9023L83.4703 221.072H86.2063L87.4703 227.456L88.9743 221.072H91.8703L93.3903 227.424L94.6383 221.072H97.2143ZM106.674 225.392C106.674 225.648 106.658 225.915 106.626 226.192H100.434C100.476 226.747 100.652 227.173 100.962 227.472C101.282 227.76 101.671 227.904 102.13 227.904C102.812 227.904 103.287 227.616 103.554 227.04H106.466C106.316 227.627 106.044 228.155 105.65 228.624C105.266 229.093 104.78 229.461 104.194 229.728C103.607 229.995 102.951 230.128 102.226 230.128C101.351 230.128 100.572 229.941 99.8896 229.568C99.207 229.195 98.6736 228.661 98.2896 227.968C97.9056 227.275 97.7136 226.464 97.7136 225.536C97.7136 224.608 97.9003 223.797 98.2736 223.104C98.6576 222.411 99.191 221.877 99.8736 221.504C100.556 221.131 101.34 220.944 102.226 220.944C103.09 220.944 103.858 221.125 104.53 221.488C105.202 221.851 105.724 222.368 106.098 223.04C106.482 223.712 106.674 224.496 106.674 225.392ZM103.874 224.672C103.874 224.203 103.714 223.829 103.394 223.552C103.074 223.275 102.674 223.136 102.194 223.136C101.735 223.136 101.346 223.269 101.026 223.536C100.716 223.803 100.524 224.181 100.45 224.672H103.874ZM110.853 222.336C111.109 221.92 111.477 221.584 111.957 221.328C112.437 221.072 112.986 220.944 113.605 220.944C114.341 220.944 115.008 221.131 115.605 221.504C116.202 221.877 116.672 222.411 117.013 223.104C117.365 223.797 117.541 224.603 117.541 225.52C117.541 226.437 117.365 227.248 117.013 227.952C116.672 228.645 116.202 229.184 115.605 229.568C115.008 229.941 114.341 230.128 113.605 230.128C112.976 230.128 112.426 230.005 111.957 229.76C111.488 229.504 111.12 229.168 110.853 228.752V230H108.117V218.16H110.853V222.336ZM114.757 225.52C114.757 224.837 114.565 224.304 114.181 223.92C113.808 223.525 113.344 223.328 112.789 223.328C112.245 223.328 111.781 223.525 111.397 223.92C111.024 224.315 110.837 224.853 110.837 225.536C110.837 226.219 111.024 226.757 111.397 227.152C111.781 227.547 112.245 227.744 112.789 227.744C113.333 227.744 113.797 227.547 114.181 227.152C114.565 226.747 114.757 226.203 114.757 225.52ZM122.608 230.128C121.83 230.128 121.136 229.995 120.528 229.728C119.92 229.461 119.44 229.099 119.088 228.64C118.736 228.171 118.539 227.648 118.496 227.072H121.2C121.232 227.381 121.376 227.632 121.632 227.824C121.888 228.016 122.203 228.112 122.576 228.112C122.918 228.112 123.179 228.048 123.36 227.92C123.552 227.781 123.648 227.605 123.648 227.392C123.648 227.136 123.515 226.949 123.248 226.832C122.982 226.704 122.55 226.565 121.952 226.416C121.312 226.267 120.779 226.112 120.352 225.952C119.926 225.781 119.558 225.52 119.248 225.168C118.939 224.805 118.784 224.32 118.784 223.712C118.784 223.2 118.923 222.736 119.2 222.32C119.488 221.893 119.904 221.557 120.448 221.312C121.003 221.067 121.659 220.944 122.416 220.944C123.536 220.944 124.416 221.221 125.056 221.776C125.707 222.331 126.08 223.067 126.176 223.984H123.648C123.606 223.675 123.467 223.429 123.232 223.248C123.008 223.067 122.71 222.976 122.336 222.976C122.016 222.976 121.771 223.04 121.6 223.168C121.43 223.285 121.344 223.451 121.344 223.664C121.344 223.92 121.478 224.112 121.744 224.24C122.022 224.368 122.448 224.496 123.024 224.624C123.686 224.795 124.224 224.965 124.64 225.136C125.056 225.296 125.419 225.563 125.728 225.936C126.048 226.299 126.214 226.789 126.224 227.408C126.224 227.931 126.075 228.4 125.776 228.816C125.488 229.221 125.067 229.541 124.512 229.776C123.968 230.011 123.334 230.128 122.608 230.128ZM129.274 220.144C128.794 220.144 128.4 220.005 128.09 219.728C127.792 219.44 127.642 219.088 127.642 218.672C127.642 218.245 127.792 217.893 128.09 217.616C128.4 217.328 128.794 217.184 129.274 217.184C129.744 217.184 130.128 217.328 130.426 217.616C130.736 217.893 130.89 218.245 130.89 218.672C130.89 219.088 130.736 219.44 130.426 219.728C130.128 220.005 129.744 220.144 129.274 220.144ZM130.634 221.072V230H127.898V221.072H130.634ZM137.593 227.68V230H136.201C135.209 230 134.436 229.76 133.881 229.28C133.326 228.789 133.049 227.995 133.049 226.896V223.344H131.961V221.072H133.049V218.896H135.785V221.072H137.577V223.344H135.785V226.928C135.785 227.195 135.849 227.387 135.977 227.504C136.105 227.621 136.318 227.68 136.617 227.68H137.593ZM147.533 225.392C147.533 225.648 147.517 225.915 147.485 226.192H141.293C141.336 226.747 141.512 227.173 141.821 227.472C142.141 227.76 142.53 227.904 142.989 227.904C143.672 227.904 144.146 227.616 144.413 227.04H147.325C147.176 227.627 146.904 228.155 146.509 228.624C146.125 229.093 145.64 229.461 145.053 229.728C144.466 229.995 143.81 230.128 143.085 230.128C142.21 230.128 141.432 229.941 140.749 229.568C140.066 229.195 139.533 228.661 139.149 227.968C138.765 227.275 138.573 226.464 138.573 225.536C138.573 224.608 138.76 223.797 139.133 223.104C139.517 222.411 140.05 221.877 140.733 221.504C141.416 221.131 142.2 220.944 143.085 220.944C143.949 220.944 144.717 221.125 145.389 221.488C146.061 221.851 146.584 222.368 146.957 223.04C147.341 223.712 147.533 224.496 147.533 225.392ZM144.733 224.672C144.733 224.203 144.573 223.829 144.253 223.552C143.933 223.275 143.533 223.136 143.053 223.136C142.594 223.136 142.205 223.269 141.885 223.536C141.576 223.803 141.384 224.181 141.309 224.672H144.733Z" fill="black"/>
</svg>
