<svg width="160" height="236" viewBox="0 0 160 236" fill="none" xmlns="http://www.w3.org/2000/svg">
<path d="M93.2547 77.519C93.5012 77.5192 93.7422 77.4466 93.9475 77.3103C94.1528 77.1741 94.3133 76.9802 94.4089 76.753C94.5044 76.5259 94.5307 76.2755 94.4845 76.0335C94.4383 75.7914 94.3216 75.5684 94.1491 75.3924L69.6311 50.4616C69.4569 50.2846 69.2339 50.1636 68.9906 50.1138C68.7474 50.064 68.4948 50.0877 68.2651 50.182C68.0353 50.2762 67.8388 50.4367 67.7006 50.643C67.5624 50.8493 67.4887 51.092 67.4889 51.3403V73.7662C67.4889 74.7615 67.8843 75.716 68.5881 76.4198C69.2918 77.1236 70.2464 77.519 71.2417 77.519H93.2547Z" fill="#133E87"/>
<path d="M61.5559 83.4375C60.2724 82.1712 59.2525 80.6631 58.5552 79.0003C57.8579 77.3375 57.497 75.5531 57.4934 73.75V45H34.9934C29.6939 45.0157 24.6159 47.1278 20.8686 50.8752C17.1212 54.6225 15.0091 59.7005 14.9934 65V135C14.9934 140.304 17.1005 145.391 20.8513 149.142C24.602 152.893 29.6891 155 34.9934 155H79.9934C85.2978 155 90.3848 152.893 94.1356 149.142C97.8863 145.391 99.9934 140.304 99.9934 135V87.5H71.2434C69.4402 87.4974 67.6554 87.137 65.9925 86.4397C64.3296 85.7423 62.8216 84.7219 61.5559 83.4375Z" fill="#133E87"/>
<path d="M116.247 37.5219H138.26C138.507 37.5221 138.748 37.4495 138.953 37.3132C139.158 37.177 139.319 36.9831 139.414 36.7559C139.51 36.5288 139.536 36.2785 139.49 36.0364C139.444 35.7943 139.327 35.5713 139.154 35.3953L114.636 10.4645C114.462 10.2876 114.239 10.1665 113.996 10.1167C113.753 10.0669 113.5 10.0907 113.27 10.1849C113.041 10.2791 112.844 10.4396 112.706 10.6459C112.568 10.8522 112.494 11.095 112.494 11.3433V33.7691C112.494 34.7644 112.89 35.719 113.593 36.4227C114.297 37.1265 115.252 37.5219 116.247 37.5219Z" fill="#133E87"/>
<path d="M116.242 47.499C112.604 47.4712 109.123 46.0137 106.55 43.441C103.977 40.8684 102.52 37.3872 102.492 33.749V4.99902H68.7419C63.7709 5.00481 59.0051 6.98211 55.4901 10.4972C51.975 14.0122 49.9977 18.778 49.9919 23.749V34.999H63.1544C64.8345 35.0057 66.4967 35.3444 68.0455 35.9954C69.5943 36.6465 70.9992 37.5971 72.1794 38.7928L106.292 73.4803C108.672 75.895 110.001 79.1525 109.989 82.5428V124.999H126.567C136.726 124.999 144.989 116.587 144.989 106.249V47.499H116.242Z" fill="#133E87"/>
<path d="M27.8686 218.768V230H25.1326V218.768H27.8686ZM35.2914 220.976C36.3367 220.976 37.1687 221.317 37.7874 222C38.4167 222.672 38.7314 223.6 38.7314 224.784V230H36.0114V225.152C36.0114 224.555 35.8567 224.091 35.5474 223.76C35.238 223.429 34.822 223.264 34.2994 223.264C33.7767 223.264 33.3607 223.429 33.0514 223.76C32.742 224.091 32.5874 224.555 32.5874 225.152V230H29.8514V221.072H32.5874V222.256C32.8647 221.861 33.238 221.552 33.7074 221.328C34.1767 221.093 34.7047 220.976 35.2914 220.976ZM43.3686 222.336C43.6353 221.92 44.0033 221.584 44.4726 221.328C44.942 221.072 45.4913 220.944 46.1206 220.944C46.8566 220.944 47.5233 221.131 48.1206 221.504C48.718 221.877 49.1873 222.411 49.5286 223.104C49.8806 223.797 50.0566 224.603 50.0566 225.52C50.0566 226.437 49.8806 227.248 49.5286 227.952C49.1873 228.645 48.718 229.184 48.1206 229.568C47.5233 229.941 46.8566 230.128 46.1206 230.128C45.502 230.128 44.9526 230 44.4726 229.744C44.0033 229.488 43.6353 229.157 43.3686 228.752V234.256H40.6326V221.072H43.3686V222.336ZM47.2726 225.52C47.2726 224.837 47.0806 224.304 46.6966 223.92C46.3233 223.525 45.8593 223.328 45.3046 223.328C44.7606 223.328 44.2966 223.525 43.9126 223.92C43.5393 224.315 43.3526 224.853 43.3526 225.536C43.3526 226.219 43.5393 226.757 43.9126 227.152C44.2966 227.547 44.7606 227.744 45.3046 227.744C45.8486 227.744 46.3126 227.547 46.6966 227.152C47.0806 226.747 47.2726 226.203 47.2726 225.52ZM60.308 221.072V230H57.572V228.784C57.2947 229.179 56.916 229.499 56.436 229.744C55.9667 229.979 55.444 230.096 54.868 230.096C54.1853 230.096 53.5827 229.947 53.06 229.648C52.5373 229.339 52.132 228.896 51.844 228.32C51.556 227.744 51.412 227.067 51.412 226.288V221.072H54.132V225.92C54.132 226.517 54.2867 226.981 54.596 227.312C54.9053 227.643 55.3213 227.808 55.844 227.808C56.3773 227.808 56.7987 227.643 57.108 227.312C57.4173 226.981 57.572 226.517 57.572 225.92V221.072H60.308ZM67.2493 227.68V230H65.8573C64.8653 230 64.0919 229.76 63.5373 229.28C62.9826 228.789 62.7053 227.995 62.7053 226.896V223.344H61.6173V221.072H62.7053V218.896H65.4413V221.072H67.2333V223.344H65.4413V226.928C65.4413 227.195 65.5053 227.387 65.6333 227.504C65.7613 227.621 65.9746 227.68 66.2733 227.68H67.2493ZM74.8999 222.336C75.1559 221.92 75.5239 221.584 76.0039 221.328C76.4839 221.072 77.0332 220.944 77.6519 220.944C78.3879 220.944 79.0545 221.131 79.6519 221.504C80.2492 221.877 80.7185 222.411 81.0599 223.104C81.4119 223.797 81.5879 224.603 81.5879 225.52C81.5879 226.437 81.4119 227.248 81.0599 227.952C80.7185 228.645 80.2492 229.184 79.6519 229.568C79.0545 229.941 78.3879 230.128 77.6519 230.128C77.0225 230.128 76.4732 230.005 76.0039 229.76C75.5345 229.504 75.1665 229.168 74.8999 228.752V230H72.1639V218.16H74.8999V222.336ZM78.8039 225.52C78.8039 224.837 78.6119 224.304 78.2279 223.92C77.8545 223.525 77.3905 223.328 76.8359 223.328C76.2919 223.328 75.8279 223.525 75.4439 223.92C75.0705 224.315 74.8839 224.853 74.8839 225.536C74.8839 226.219 75.0705 226.757 75.4439 227.152C75.8279 227.547 76.2919 227.744 76.8359 227.744C77.3799 227.744 77.8439 227.547 78.2279 227.152C78.6119 226.747 78.8039 226.203 78.8039 225.52ZM92.1433 221.072L86.5433 234.24H83.5993L85.6473 229.696L82.0152 221.072H85.0713L87.1353 226.656L89.1833 221.072H92.1433ZM99.2593 220.96V223.232H102.923V225.344H99.2593V227.808H103.403V230H96.5233V218.768H103.403V220.96H99.2593ZM110.46 230L108.748 227.52L107.308 230H104.348L107.292 225.44L104.268 221.072H107.34L109.052 223.536L110.492 221.072H113.452L110.46 225.568L113.532 230H110.46ZM114.042 225.536C114.042 224.608 114.228 223.797 114.602 223.104C114.986 222.411 115.514 221.877 116.186 221.504C116.868 221.131 117.647 220.944 118.522 220.944C119.642 220.944 120.575 221.237 121.322 221.824C122.079 222.411 122.575 223.237 122.81 224.304H119.898C119.652 223.621 119.178 223.28 118.474 223.28C117.972 223.28 117.572 223.477 117.274 223.872C116.975 224.256 116.826 224.811 116.826 225.536C116.826 226.261 116.975 226.821 117.274 227.216C117.572 227.6 117.972 227.792 118.474 227.792C119.178 227.792 119.652 227.451 119.898 226.768H122.81C122.575 227.813 122.079 228.635 121.322 229.232C120.564 229.829 119.631 230.128 118.522 230.128C117.647 230.128 116.868 229.941 116.186 229.568C115.514 229.195 114.986 228.661 114.602 227.968C114.228 227.275 114.042 226.464 114.042 225.536ZM132.689 225.392C132.689 225.648 132.673 225.915 132.641 226.192H126.449C126.492 226.747 126.668 227.173 126.977 227.472C127.297 227.76 127.687 227.904 128.145 227.904C128.828 227.904 129.303 227.616 129.569 227.04H132.481C132.332 227.627 132.06 228.155 131.665 228.624C131.281 229.093 130.796 229.461 130.209 229.728C129.623 229.995 128.967 230.128 128.241 230.128C127.367 230.128 126.588 229.941 125.905 229.568C125.223 229.195 124.689 228.661 124.305 227.968C123.921 227.275 123.729 226.464 123.729 225.536C123.729 224.608 123.916 223.797 124.289 223.104C124.673 222.411 125.207 221.877 125.889 221.504C126.572 221.131 127.356 220.944 128.241 220.944C129.105 220.944 129.873 221.125 130.545 221.488C131.217 221.851 131.74 222.368 132.113 223.04C132.497 223.712 132.689 224.496 132.689 225.392ZM129.889 224.672C129.889 224.203 129.729 223.829 129.409 223.552C129.089 223.275 128.689 223.136 128.209 223.136C127.751 223.136 127.361 223.269 127.041 223.536C126.732 223.803 126.54 224.181 126.465 224.672H129.889ZM136.869 218.16V230H134.133V218.16H136.869Z" fill="black"/>
</svg>
