<svg width="151" height="149" viewBox="0 0 151 149" fill="none" xmlns="http://www.w3.org/2000/svg">
<path d="M131.089 12.4675L124 19.5565L131.089 26.6486L138.178 19.5565C139.118 18.6162 139.645 17.3413 139.645 16.012C139.645 14.6827 139.118 13.4078 138.178 12.4675C137.238 11.5278 135.963 11 134.633 11C133.304 11 132.029 11.5278 131.089 12.4675Z" stroke="#989898" stroke-width="21" stroke-linecap="round" stroke-linejoin="round"/>
<path fill-rule="evenodd" clip-rule="evenodd" d="M104.785 26.6416C107.572 26.64 110.245 27.7464 112.215 29.717L119.284 36.7857C121.255 38.7563 122.361 41.4295 122.359 44.2163C122.358 47.0031 121.248 49.675 119.276 51.6434L32.4757 138.246C31.7019 139.019 30.8123 139.665 29.839 140.163L15.7796 147.35C11.7249 149.423 6.7961 148.646 3.57585 145.426C0.355597 142.206 -0.421968 137.277 1.65057 133.222L8.83807 119.16C9.33571 118.186 9.98239 117.296 10.7547 116.522L97.3578 29.7253C99.3262 27.7525 101.998 26.6432 104.785 26.6416ZM104.799 37.1336V37.1336Z" fill="#133E87"/>
</svg>
