<svg width="160" height="160" viewBox="0 0 160 160" fill="none" xmlns="http://www.w3.org/2000/svg">
<path d="M80 0C101.217 0 121.566 8.42855 136.569 23.4315C151.571 38.4344 160 58.7827 160 80C160 101.217 151.571 121.566 136.569 136.569C121.566 151.571 101.217 160 80 160C58.7827 160 38.4344 151.571 23.4315 136.569C8.42855 121.566 0 101.217 0 80C0 58.7827 8.42855 38.4344 23.4315 23.4315C38.4344 8.42855 58.7827 0 80 0ZM72.5 37.5V80C72.5 82.5 73.75 84.8438 75.8438 86.25L105.844 106.25C109.281 108.562 113.938 107.625 116.25 104.156C118.562 100.688 117.625 96.0625 114.156 93.75L87.5 76V37.5C87.5 33.3438 84.1562 30 80 30C75.8438 30 72.5 33.3438 72.5 37.5Z" fill="#5E6266"/>
</svg>
