<svg width="160" height="160" viewBox="0 0 160 160" fill="none" xmlns="http://www.w3.org/2000/svg">
<path d="M103.946 20.1856C97.8643 13.62 89.3705 10.0044 79.9955 10.0044C70.5705 10.0044 62.0486 13.5981 55.9955 20.1231C49.8768 26.72 46.8955 35.6856 47.5955 45.3669C48.983 64.4669 63.5174 80.0044 79.9955 80.0044C96.4736 80.0044 110.983 64.47 112.392 45.3731C113.102 35.7794 110.102 26.8325 103.946 20.1856Z" fill="#C9C6C8"/>
<path d="M134.998 150.001H24.9983C23.5585 150.02 22.1327 149.718 20.8245 149.116C19.5163 148.514 18.3587 147.628 17.4358 146.523C15.4046 144.095 14.5858 140.779 15.1921 137.426C17.8296 122.795 26.0608 110.504 38.9983 101.876C50.4921 94.2168 65.0515 90.0012 79.9983 90.0012C94.9452 90.0012 109.505 94.22 120.998 101.876C133.936 110.501 142.167 122.792 144.805 137.423C145.411 140.776 144.592 144.092 142.561 146.52C141.638 147.626 140.481 148.512 139.173 149.114C137.864 149.717 136.438 150.02 134.998 150.001V150.001Z" fill="#133E87"/>
</svg>
