<svg width="160" height="160" viewBox="0 0 160 160" fill="none" xmlns="http://www.w3.org/2000/svg">
<path d="M103.945 20.1856C97.8642 13.62 89.3704 10.0044 79.9954 10.0044C70.5704 10.0044 62.0485 13.5981 55.9954 20.1231C49.8767 26.72 46.8954 35.6856 47.5954 45.3669C48.9829 64.4669 63.5173 80.0044 79.9954 80.0044C96.4735 80.0044 110.983 64.47 112.392 45.3731C113.102 35.7794 110.102 26.8325 103.945 20.1856Z" fill="#989898"/>
<path d="M134.998 150.001H24.9979C23.5581 150.02 22.1322 149.717 20.824 149.116C19.5158 148.514 18.3582 147.628 17.4354 146.523C15.4041 144.095 14.5854 140.779 15.1916 137.426C17.8291 122.795 26.0604 110.504 38.9979 101.876C50.4916 94.2166 65.051 90.001 79.9979 90.001C94.9448 90.001 109.504 94.2197 120.998 101.876C133.935 110.501 142.167 122.792 144.804 137.423C145.41 140.776 144.592 144.092 142.56 146.52C141.638 147.626 140.48 148.512 139.172 149.114C137.864 149.716 136.438 150.019 134.998 150.001V150.001Z" fill="#6C6B6C"/>
</svg>
