<svg width="160" height="160" viewBox="0 0 160 160" fill="none" xmlns="http://www.w3.org/2000/svg">
<path d="M80 0C35.8885 0 0 35.8885 0 80C0 124.112 35.8885 160 80 160C124.112 160 160 124.112 160 80C160 35.8885 124.112 0 80 0ZM80.7692 36.9231C86.2463 36.9231 91.6003 38.5472 96.1543 41.5901C100.708 44.6329 104.258 48.9579 106.354 54.018C108.45 59.0781 108.998 64.6461 107.929 70.0179C106.861 75.3897 104.223 80.324 100.351 84.1968C96.4778 88.0696 91.5435 90.7071 86.1717 91.7756C80.8 92.8441 75.232 92.2957 70.1718 90.1997C65.1117 88.1038 60.7868 84.5544 57.7439 80.0004C54.701 75.4464 53.0769 70.0924 53.0769 64.6154C53.0769 57.2709 55.9945 50.2273 61.1878 45.034C66.3811 39.8407 73.4248 36.9231 80.7692 36.9231V36.9231ZM80 147.692C70.6633 147.696 61.4273 145.764 52.8754 142.017C44.3236 138.27 36.6418 132.79 30.3154 125.923C33.7154 108.315 64.2538 104.615 80 104.615C95.7462 104.615 126.285 108.315 129.685 125.919C123.359 132.787 115.677 138.268 107.125 142.016C98.5735 145.763 89.3371 147.696 80 147.692V147.692Z" fill="#133E87"/>
</svg>
