<svg width="160" height="160" viewBox="0 0 160 160" fill="none" xmlns="http://www.w3.org/2000/svg">
<path d="M80 160C101.217 160 121.566 151.571 136.569 136.569C151.571 121.566 160 101.217 160 80C160 58.7827 151.571 38.4344 136.569 23.4315C121.566 8.42855 101.217 0 80 0C58.7827 0 38.4344 8.42855 23.4315 23.4315C8.42855 38.4344 0 58.7827 0 80C0 101.217 8.42855 121.566 23.4315 136.569C38.4344 151.571 58.7827 160 80 160ZM54.6875 54.6875C57.625 51.75 62.375 51.75 65.2812 54.6875L79.9687 69.375L94.6562 54.6875C97.5937 51.75 102.344 51.75 105.25 54.6875C108.156 57.625 108.187 62.375 105.25 65.2812L90.5625 79.9687L105.25 94.6562C108.187 97.5937 108.187 102.344 105.25 105.25C102.312 108.156 97.5625 108.187 94.6562 105.25L79.9687 90.5625L65.2812 105.25C62.3437 108.187 57.5938 108.187 54.6875 105.25C51.7812 102.312 51.75 97.5625 54.6875 94.6562L69.375 79.9687L54.6875 65.2812C51.75 62.3437 51.75 57.5938 54.6875 54.6875Z" fill="#A01C1B"/>
</svg>
