<svg width="160" height="160" viewBox="0 0 160 160" fill="none" xmlns="http://www.w3.org/2000/svg">
<path d="M80.0008 95.0201C88.2911 95.0201 95.0118 88.2994 95.0118 80.0091C95.0118 71.7187 88.2911 64.998 80.0008 64.998C71.7104 64.998 64.9897 71.7187 64.9897 80.0091C64.9897 88.2994 71.7104 95.0201 80.0008 95.0201Z" fill="#989898"/>
<path d="M146.994 93.7559L146.847 93.6371L136.984 85.9028C136.36 85.4087 135.861 84.7735 135.53 84.0493C135.198 83.3252 135.044 82.5328 135.078 81.7371V78.1246C135.047 77.3341 135.203 76.5474 135.535 75.8292C135.867 75.111 136.365 74.4818 136.987 73.9934L146.847 66.2559L146.994 66.1371C148.514 64.8704 149.535 63.1042 149.872 61.1542C150.21 59.2042 149.843 57.1977 148.837 55.4934L135.49 32.3996C135.475 32.3778 135.462 32.3548 135.45 32.3309C134.439 30.6501 132.87 29.3767 131.018 28.7316C129.166 28.0865 127.146 28.1106 125.309 28.7996L125.2 28.8402L113.606 33.5059C112.874 33.8017 112.083 33.9195 111.297 33.8494C110.51 33.7793 109.752 33.5234 109.084 33.1027C108.059 32.4569 107.018 31.8465 105.959 31.2715C105.273 30.8994 104.684 30.3712 104.239 29.7296C103.795 29.088 103.507 28.3509 103.4 27.5777L101.653 15.2059L101.615 14.9809C101.235 13.0646 100.207 11.3376 98.7033 10.0902C97.1998 8.84278 95.3127 8.15091 93.3592 8.13086H66.6342C64.6532 8.1372 62.7379 8.84247 61.2258 10.1224C59.7138 11.4024 58.7019 13.1749 58.3686 15.1277L58.3405 15.3027L56.5998 27.6996C56.4931 28.4706 56.2078 29.2059 55.7667 29.8472C55.3257 30.4885 54.741 31.0179 54.0592 31.3934C52.9905 31.9684 51.9467 32.5777 50.9342 33.2121C50.2675 33.6302 49.5112 33.8842 48.7273 33.9531C47.9434 34.0221 47.1543 33.9042 46.4249 33.609L34.8217 28.9215L34.7124 28.8777C32.8732 28.188 30.8504 28.1648 28.9959 28.8123C27.1414 29.4597 25.5725 30.7369 24.5624 32.4215L24.5217 32.4902L11.1561 55.5996C10.1487 57.3057 9.78102 59.3144 10.1188 61.2667C10.4566 63.219 11.4778 64.9875 12.9999 66.2559L13.1467 66.3746L23.0092 74.109C23.6338 74.6031 24.1322 75.2383 24.4636 75.9624C24.795 76.6866 24.9499 77.479 24.9155 78.2746V81.8871C24.9468 82.6777 24.79 83.4644 24.4581 84.1826C24.1262 84.9008 23.6285 85.5299 23.0061 86.0184L13.1467 93.7559L12.9999 93.8746C11.4793 95.1413 10.4589 96.9076 10.1211 98.8575C9.78335 100.808 10.1502 102.814 11.1561 104.518L24.503 127.612C24.5183 127.634 24.5319 127.657 24.5436 127.681C25.5549 129.362 27.1229 130.635 28.9754 131.28C30.8278 131.925 32.8477 131.901 34.6842 131.212L34.7936 131.172L46.378 126.506C47.1097 126.21 47.9013 126.092 48.6875 126.162C49.4737 126.232 50.232 126.488 50.8998 126.909C51.9248 127.557 52.9665 128.167 54.0248 128.74C54.711 129.112 55.3002 129.641 55.7447 130.282C56.1893 130.924 56.4769 131.661 56.5842 132.434L58.3217 144.806L58.3592 145.031C58.7402 146.95 59.7712 148.68 61.2786 149.927C62.786 151.175 64.6775 151.865 66.6342 151.881H93.3592C95.3403 151.875 97.2555 151.169 98.7676 149.889C100.28 148.609 101.291 146.837 101.625 144.884L101.653 144.709L103.394 132.312C103.502 131.54 103.79 130.803 104.234 130.162C104.677 129.521 105.265 128.992 105.95 128.618C107.019 128.043 108.062 127.434 109.075 126.8C109.742 126.382 110.498 126.128 111.282 126.059C112.066 125.99 112.855 126.108 113.584 126.403L125.187 131.075L125.297 131.118C127.136 131.809 129.159 131.833 131.014 131.186C132.869 130.538 134.437 129.26 135.447 127.575C135.459 127.551 135.473 127.528 135.487 127.506L148.834 104.415C149.843 102.709 150.212 100.7 149.875 98.7469C149.538 96.7938 148.516 95.0245 146.994 93.7559V93.7559ZM104.969 81.1809C104.741 86.0202 103.112 90.6891 100.28 94.6199C97.4485 98.5507 93.5356 101.574 89.0173 103.322C84.4991 105.07 79.5702 105.468 74.8301 104.467C70.09 103.466 65.7429 101.109 62.3175 97.6832C58.892 94.2573 56.5357 89.9099 55.5352 85.1697C54.5346 80.4295 54.9329 75.5007 56.6816 70.9826C58.4303 66.4646 61.4541 62.552 65.3852 59.7206C69.3164 56.8892 73.9855 55.261 78.8248 55.034C82.2991 54.881 85.7672 55.4527 89.0085 56.7126C92.2499 57.9725 95.1936 59.8932 97.6525 62.3524C100.111 64.8115 102.032 67.7555 103.291 70.997C104.551 74.2385 105.122 77.7067 104.969 81.1809V81.1809Z" fill="#133E87"/>
</svg>
