<svg width="160" height="160" viewBox="0 0 160 160" fill="none" xmlns="http://www.w3.org/2000/svg">
<path d="M139.993 14.9941H19.9932C14.4703 14.9941 9.99316 19.4713 9.99316 24.9941V29.9941C9.99316 35.517 14.4703 39.9941 19.9932 39.9941H139.993C145.516 39.9941 149.993 35.517 149.993 29.9941V24.9941C149.993 19.4713 145.516 14.9941 139.993 14.9941Z" fill="#989898"/>
<path d="M23.2654 50.0069C22.9141 50.005 22.5664 50.0771 22.2448 50.2187C21.9233 50.3602 21.6351 50.5679 21.3993 50.8283C21.1634 51.0886 20.985 51.3958 20.8758 51.7297C20.7666 52.0636 20.729 52.4168 20.7654 52.7662L28.9873 131.691C28.9856 131.714 28.9856 131.737 28.9873 131.76C29.4169 135.411 31.1719 138.776 33.9192 141.218C36.6665 143.66 40.2148 145.008 43.8905 145.007H116.106C119.781 145.007 123.327 143.658 126.073 141.216C128.819 138.774 130.574 135.409 131.003 131.76V131.694L139.212 52.7662C139.249 52.4168 139.211 52.0636 139.102 51.7297C138.993 51.3958 138.814 51.0886 138.579 50.8283C138.343 50.5679 138.055 50.3602 137.733 50.2187C137.411 50.0771 137.064 50.005 136.712 50.0069H23.2654ZM101.034 106.473C101.51 106.934 101.888 107.486 102.149 108.096C102.409 108.705 102.545 109.36 102.55 110.023C102.555 110.686 102.427 111.343 102.176 111.956C101.924 112.569 101.553 113.126 101.085 113.595C100.616 114.063 100.059 114.434 99.4454 114.685C98.8322 114.937 98.175 115.063 97.5123 115.058C96.8496 115.053 96.1944 114.917 95.585 114.656C94.9756 114.396 94.424 114.017 93.9623 113.541L79.9998 99.5788L66.0342 113.541C65.0922 114.457 63.8279 114.964 62.5145 114.955C61.2011 114.946 59.9441 114.42 59.0152 113.492C58.0862 112.563 57.56 111.306 57.5501 109.993C57.5402 108.679 58.0475 107.415 58.9623 106.473L72.928 92.5069L58.9623 78.5413C58.0475 77.5988 57.5402 76.3343 57.5501 75.0209C57.56 73.7075 58.0862 72.4508 59.0152 71.5222C59.9441 70.5937 61.2011 70.068 62.5145 70.0587C63.8279 70.0494 65.0922 70.5572 66.0342 71.4725L79.9998 85.435L93.9623 71.4725C94.9043 70.5572 96.1687 70.0494 97.4821 70.0587C98.7955 70.068 100.052 70.5937 100.981 71.5222C101.91 72.4508 102.437 73.7075 102.446 75.0209C102.456 76.3343 101.949 77.5988 101.034 78.5413L87.0686 92.5069L101.034 106.473Z" fill="#133E87"/>
</svg>
