<svg width="160" height="160" viewBox="0 0 160 160" fill="none" xmlns="http://www.w3.org/2000/svg">
<path d="M149.892 83.9749L139.892 36.5342C137.961 26.1842 130.523 20.0061 119.998 20.0061H39.9983C34.7483 20.0061 30.3108 21.4717 26.842 24.3624C23.3733 27.253 21.1014 31.3342 20.0983 36.5155L10.0983 83.9749C10.0307 84.3144 9.99722 84.6599 9.99828 85.0061V120.006C9.99828 125.31 12.1054 130.398 15.8561 134.148C19.6069 137.899 24.6939 140.006 29.9983 140.006H129.998C135.303 140.006 140.39 137.899 144.14 134.148C147.891 130.398 149.998 125.31 149.998 120.006V85.0061C149.997 84.6597 149.962 84.3142 149.892 83.9749ZM29.892 38.5374C29.892 38.5061 29.892 38.478 29.892 38.4499C31.0014 32.6905 34.2077 30.0124 39.9827 30.0124H119.998C125.814 30.0124 129.02 32.6842 130.083 38.4217C130.083 38.4624 130.098 38.503 130.105 38.5436L138.52 78.5061C138.558 78.6882 138.555 78.8765 138.511 79.0573C138.468 79.238 138.384 79.4067 138.266 79.5511C138.149 79.6954 138.001 79.8117 137.833 79.8915C137.665 79.9713 137.481 80.0126 137.295 80.0124H99.9983C98.6799 80.0057 97.4128 80.5226 96.4753 81.4496C95.5378 82.3766 95.0065 83.6377 94.9983 84.9561C94.9983 88.9344 93.4179 92.7497 90.6049 95.5627C87.7918 98.3758 83.9765 99.9561 79.9983 99.9561C76.02 99.9561 72.2047 98.3758 69.3917 95.5627C66.5786 92.7497 64.9983 88.9344 64.9983 84.9561C64.995 84.3028 64.8631 83.6565 64.61 83.0541C64.357 82.4518 63.9878 81.9052 63.5235 81.4456C63.0592 80.9859 62.5089 80.6222 61.904 80.3752C61.2992 80.1282 60.6516 80.0028 59.9983 80.0061H22.7014C22.5154 80.0063 22.3316 79.965 22.1636 79.8852C21.9956 79.8054 21.8475 79.6891 21.7301 79.5448C21.6127 79.4005 21.529 79.2318 21.4851 79.051C21.4413 78.8702 21.4383 78.6819 21.4764 78.4999L29.892 38.5374Z" fill="#133E87"/>
<path d="M115.007 50.0071H45.0068C43.6807 50.0071 42.4089 49.4803 41.4712 48.5426C40.5336 47.6049 40.0068 46.3332 40.0068 45.0071C40.0068 43.681 40.5336 42.4092 41.4712 41.4715C42.4089 40.5339 43.6807 40.0071 45.0068 40.0071H115.007C116.333 40.0071 117.605 40.5339 118.542 41.4715C119.48 42.4092 120.007 43.681 120.007 45.0071C120.007 46.3332 119.48 47.6049 118.542 48.5426C117.605 49.4803 116.333 50.0071 115.007 50.0071Z" fill="#C9C6C8"/>
<path d="M120.009 70.0078H40.0094C38.6833 70.0078 37.4116 69.481 36.4739 68.5433C35.5362 67.6057 35.0094 66.3339 35.0094 65.0078C35.0094 63.6817 35.5362 62.41 36.4739 61.4723C37.4116 60.5346 38.6833 60.0078 40.0094 60.0078H120.009C121.336 60.0078 122.607 60.5346 123.545 61.4723C124.483 62.41 125.009 63.6817 125.009 65.0078C125.009 66.3339 124.483 67.6057 123.545 68.5433C122.607 69.481 121.336 70.0078 120.009 70.0078Z" fill="#C9C6C8"/>
</svg>
