<svg width="167" height="169" viewBox="0 0 167 169" fill="none" xmlns="http://www.w3.org/2000/svg">
<path d="M83.2773 0C37.2866 0 0 37.6522 0 84.0938C0 130.535 37.2866 168.188 83.2773 168.188C129.268 168.188 166.555 130.535 166.555 84.0938C166.555 37.6522 129.268 0 83.2773 0ZM121.713 97.0313H83.2773C81.5784 97.0313 79.949 96.3498 78.7476 95.1366C77.5463 93.9235 76.8714 92.2781 76.8714 90.5625V32.3438C76.8714 30.6281 77.5463 28.9828 78.7476 27.7697C79.949 26.5565 81.5784 25.875 83.2773 25.875C84.9763 25.875 86.6057 26.5565 87.807 27.7697C89.0084 28.9828 89.6833 30.6281 89.6833 32.3438V84.0938H121.713C123.412 84.0938 125.041 84.7753 126.243 85.9884C127.444 87.2015 128.119 88.8469 128.119 90.5625C128.119 92.2781 127.444 93.9235 126.243 95.1366C125.041 96.3498 123.412 97.0313 121.713 97.0313Z" fill="#133E87"/>
</svg>
